<mxfile host="app.diagrams.net" modified="2022-10-06T20:11:42.995Z" agent="5.0 (Windows NT 10.0; Win64; x64) AppleWebKit/537.36 (KHTML, like Gecko) Chrome/105.0.0.0 Safari/537.36" etag="-YrgXTfq8QAjh8DBPXta" version="20.4.0" type="github">
  <diagram id="OctlWL2hslt6Mt2gqH5t" name="Pagina-1">
    <mxGraphModel dx="2062" dy="1122" grid="1" gridSize="10" guides="1" tooltips="1" connect="1" arrows="1" fold="1" page="1" pageScale="1" pageWidth="827" pageHeight="1169" math="0" shadow="0">
      <root>
        <mxCell id="0" />
        <mxCell id="1" parent="0" />
        <mxCell id="XRbNPRy90sFqUwL_RlTj-10" value="Messages" style="swimlane;" vertex="1" parent="1">
          <mxGeometry x="610" y="270" width="200" height="210" as="geometry" />
        </mxCell>
        <mxCell id="XRbNPRy90sFqUwL_RlTj-11" value="DICT" style="text;html=1;strokeColor=none;fillColor=none;align=center;verticalAlign=middle;whiteSpace=wrap;rounded=0;" vertex="1" parent="XRbNPRy90sFqUwL_RlTj-10">
          <mxGeometry x="70" y="20" width="60" height="30" as="geometry" />
        </mxCell>
        <mxCell id="XRbNPRy90sFqUwL_RlTj-13" value="&lt;ul&gt;&lt;li&gt;Streamer&lt;/li&gt;&lt;li&gt;stream title&lt;/li&gt;&lt;li&gt;instagram_engagement_start&lt;/li&gt;&lt;li&gt;instagram_subs_start&lt;/li&gt;&lt;li&gt;youtube_subs_start&lt;/li&gt;&lt;li&gt;messages&lt;/li&gt;&lt;li style=&quot;--tw-translate-x:0; --tw-translate-y:0; --tw-rotate:0; --tw-skew-x:0; --tw-skew-y:0; --tw-scale-x:1; --tw-scale-y:1; --tw-pan-x: ; --tw-pan-y: ; --tw-pinch-zoom: ; --tw-scroll-snap-strictness:proximity; --tw-ordinal: ; --tw-slashed-zero: ; --tw-numeric-figure: ; --tw-numeric-spacing: ; --tw-numeric-fraction: ; --tw-ring-inset: ; --tw-ring-offset-width:0px; --tw-ring-offset-color:#fff; --tw-ring-color:rgb(59 130 246 / 0.5); --tw-ring-offset-shadow:0 0 #0000; --tw-ring-shadow:0 0 #0000; --tw-shadow:0 0 #0000; --tw-shadow-colored:0 0 #0000; --tw-blur: ; --tw-brightness: ; --tw-contrast: ; --tw-grayscale: ; --tw-hue-rotate: ; --tw-invert: ; --tw-saturate: ; --tw-sepia: ; --tw-drop-shadow: ; --tw-backdrop-blur: ; --tw-backdrop-brightness: ; --tw-backdrop-contrast: ; --tw-backdrop-grayscale: ; --tw-backdrop-hue-rotate: ; --tw-backdrop-invert: ; --tw-backdrop-opacity: ; --tw-backdrop-saturate: ; --tw-backdrop-sepia: ;&quot;&gt;instagram_engagement_end&lt;/li&gt;&lt;li style=&quot;--tw-translate-x:0; --tw-translate-y:0; --tw-rotate:0; --tw-skew-x:0; --tw-skew-y:0; --tw-scale-x:1; --tw-scale-y:1; --tw-pan-x: ; --tw-pan-y: ; --tw-pinch-zoom: ; --tw-scroll-snap-strictness:proximity; --tw-ordinal: ; --tw-slashed-zero: ; --tw-numeric-figure: ; --tw-numeric-spacing: ; --tw-numeric-fraction: ; --tw-ring-inset: ; --tw-ring-offset-width:0px; --tw-ring-offset-color:#fff; --tw-ring-color:rgb(59 130 246 / 0.5); --tw-ring-offset-shadow:0 0 #0000; --tw-ring-shadow:0 0 #0000; --tw-shadow:0 0 #0000; --tw-shadow-colored:0 0 #0000; --tw-blur: ; --tw-brightness: ; --tw-contrast: ; --tw-grayscale: ; --tw-hue-rotate: ; --tw-invert: ; --tw-saturate: ; --tw-sepia: ; --tw-drop-shadow: ; --tw-backdrop-blur: ; --tw-backdrop-brightness: ; --tw-backdrop-contrast: ; --tw-backdrop-grayscale: ; --tw-backdrop-hue-rotate: ; --tw-backdrop-invert: ; --tw-backdrop-opacity: ; --tw-backdrop-saturate: ; --tw-backdrop-sepia: ;&quot;&gt;instagram_subs_end&lt;/li&gt;&lt;li style=&quot;--tw-translate-x:0; --tw-translate-y:0; --tw-rotate:0; --tw-skew-x:0; --tw-skew-y:0; --tw-scale-x:1; --tw-scale-y:1; --tw-pan-x: ; --tw-pan-y: ; --tw-pinch-zoom: ; --tw-scroll-snap-strictness:proximity; --tw-ordinal: ; --tw-slashed-zero: ; --tw-numeric-figure: ; --tw-numeric-spacing: ; --tw-numeric-fraction: ; --tw-ring-inset: ; --tw-ring-offset-width:0px; --tw-ring-offset-color:#fff; --tw-ring-color:rgb(59 130 246 / 0.5); --tw-ring-offset-shadow:0 0 #0000; --tw-ring-shadow:0 0 #0000; --tw-shadow:0 0 #0000; --tw-shadow-colored:0 0 #0000; --tw-blur: ; --tw-brightness: ; --tw-contrast: ; --tw-grayscale: ; --tw-hue-rotate: ; --tw-invert: ; --tw-saturate: ; --tw-sepia: ; --tw-drop-shadow: ; --tw-backdrop-blur: ; --tw-backdrop-brightness: ; --tw-backdrop-contrast: ; --tw-backdrop-grayscale: ; --tw-backdrop-hue-rotate: ; --tw-backdrop-invert: ; --tw-backdrop-opacity: ; --tw-backdrop-saturate: ; --tw-backdrop-sepia: ;&quot;&gt;youtube_subs_end&lt;/li&gt;&lt;/ul&gt;" style="text;strokeColor=none;fillColor=none;html=1;whiteSpace=wrap;verticalAlign=middle;overflow=hidden;" vertex="1" parent="XRbNPRy90sFqUwL_RlTj-10">
          <mxGeometry y="60" width="200" height="150" as="geometry" />
        </mxCell>
        <mxCell id="XRbNPRy90sFqUwL_RlTj-14" value="&lt;b&gt;KEYS&lt;/b&gt;" style="text;html=1;strokeColor=none;fillColor=none;align=center;verticalAlign=middle;whiteSpace=wrap;rounded=0;" vertex="1" parent="XRbNPRy90sFqUwL_RlTj-10">
          <mxGeometry y="50" width="60" height="30" as="geometry" />
        </mxCell>
        <mxCell id="XRbNPRy90sFqUwL_RlTj-12" value="" style="endArrow=none;html=1;rounded=0;exitX=0;exitY=0.25;exitDx=0;exitDy=0;entryX=1;entryY=0.25;entryDx=0;entryDy=0;" edge="1" parent="1" source="XRbNPRy90sFqUwL_RlTj-10" target="XRbNPRy90sFqUwL_RlTj-10">
          <mxGeometry width="50" height="50" relative="1" as="geometry">
            <mxPoint x="390" y="600" as="sourcePoint" />
            <mxPoint x="440" y="550" as="targetPoint" />
          </mxGeometry>
        </mxCell>
        <mxCell id="XRbNPRy90sFqUwL_RlTj-15" value="messages (key)" style="swimlane;" vertex="1" parent="1">
          <mxGeometry x="330" y="280" width="200" height="200" as="geometry" />
        </mxCell>
        <mxCell id="XRbNPRy90sFqUwL_RlTj-17" value="contains list" style="text;html=1;align=center;verticalAlign=middle;resizable=0;points=[];autosize=1;strokeColor=none;fillColor=none;" vertex="1" parent="XRbNPRy90sFqUwL_RlTj-15">
          <mxGeometry x="50" y="25" width="90" height="30" as="geometry" />
        </mxCell>
        <mxCell id="XRbNPRy90sFqUwL_RlTj-18" value="stream_time" style="text;html=1;strokeColor=none;fillColor=none;align=center;verticalAlign=middle;whiteSpace=wrap;rounded=0;" vertex="1" parent="XRbNPRy90sFqUwL_RlTj-15">
          <mxGeometry x="70" y="60" width="60" height="30" as="geometry" />
        </mxCell>
        <mxCell id="XRbNPRy90sFqUwL_RlTj-19" value="chats (dictionaries)" style="text;html=1;strokeColor=none;fillColor=none;align=center;verticalAlign=middle;whiteSpace=wrap;rounded=0;" vertex="1" parent="XRbNPRy90sFqUwL_RlTj-15">
          <mxGeometry x="10" y="90" width="180" height="30" as="geometry" />
        </mxCell>
        <mxCell id="XRbNPRy90sFqUwL_RlTj-16" value="" style="endArrow=none;html=1;rounded=0;exitX=0;exitY=0.25;exitDx=0;exitDy=0;entryX=1;entryY=0.25;entryDx=0;entryDy=0;" edge="1" parent="1" source="XRbNPRy90sFqUwL_RlTj-15" target="XRbNPRy90sFqUwL_RlTj-15">
          <mxGeometry width="50" height="50" relative="1" as="geometry">
            <mxPoint x="390" y="460" as="sourcePoint" />
            <mxPoint x="440" y="410" as="targetPoint" />
          </mxGeometry>
        </mxCell>
        <mxCell id="XRbNPRy90sFqUwL_RlTj-20" value="" style="endArrow=classic;html=1;rounded=0;exitX=1;exitY=0.5;exitDx=0;exitDy=0;entryX=-0.01;entryY=0.627;entryDx=0;entryDy=0;entryPerimeter=0;" edge="1" parent="1" source="XRbNPRy90sFqUwL_RlTj-15" target="XRbNPRy90sFqUwL_RlTj-13">
          <mxGeometry width="50" height="50" relative="1" as="geometry">
            <mxPoint x="430" y="280" as="sourcePoint" />
            <mxPoint x="620" y="390" as="targetPoint" />
          </mxGeometry>
        </mxCell>
        <mxCell id="XRbNPRy90sFqUwL_RlTj-24" value="" style="endArrow=classic;html=1;rounded=0;exitX=0.995;exitY=0.055;exitDx=0;exitDy=0;entryX=0;entryY=0.5;entryDx=0;entryDy=0;exitPerimeter=0;" edge="1" parent="1" source="XRbNPRy90sFqUwL_RlTj-25" target="XRbNPRy90sFqUwL_RlTj-15">
          <mxGeometry width="50" height="50" relative="1" as="geometry">
            <mxPoint x="210" y="352.5" as="sourcePoint" />
            <mxPoint x="320" y="357.5" as="targetPoint" />
          </mxGeometry>
        </mxCell>
        <mxCell id="XRbNPRy90sFqUwL_RlTj-25" value="chats" style="swimlane;" vertex="1" parent="1">
          <mxGeometry x="30" y="275" width="210" height="200" as="geometry" />
        </mxCell>
        <mxCell id="XRbNPRy90sFqUwL_RlTj-26" value="separate dictionary for each chat" style="text;html=1;align=center;verticalAlign=middle;resizable=0;points=[];autosize=1;strokeColor=none;fillColor=none;" vertex="1" parent="XRbNPRy90sFqUwL_RlTj-25">
          <mxGeometry x="-5" y="25" width="200" height="30" as="geometry" />
        </mxCell>
        <mxCell id="XRbNPRy90sFqUwL_RlTj-27" value="id (hashed username)" style="text;html=1;strokeColor=none;fillColor=none;align=center;verticalAlign=middle;whiteSpace=wrap;rounded=0;" vertex="1" parent="XRbNPRy90sFqUwL_RlTj-25">
          <mxGeometry x="30" y="60" width="140" height="30" as="geometry" />
        </mxCell>
        <mxCell id="XRbNPRy90sFqUwL_RlTj-28" value="message" style="text;html=1;strokeColor=none;fillColor=none;align=center;verticalAlign=middle;whiteSpace=wrap;rounded=0;" vertex="1" parent="XRbNPRy90sFqUwL_RlTj-25">
          <mxGeometry x="10" y="90" width="180" height="30" as="geometry" />
        </mxCell>
        <mxCell id="XRbNPRy90sFqUwL_RlTj-29" value="" style="endArrow=none;html=1;rounded=0;exitX=0;exitY=0.25;exitDx=0;exitDy=0;entryX=1;entryY=0.25;entryDx=0;entryDy=0;" edge="1" parent="XRbNPRy90sFqUwL_RlTj-25">
          <mxGeometry width="50" height="50" relative="1" as="geometry">
            <mxPoint y="55" as="sourcePoint" />
            <mxPoint x="200" y="55" as="targetPoint" />
          </mxGeometry>
        </mxCell>
        <mxCell id="XRbNPRy90sFqUwL_RlTj-30" value="badge(s) (list of user badges)" style="text;html=1;strokeColor=none;fillColor=none;align=center;verticalAlign=middle;whiteSpace=wrap;rounded=0;" vertex="1" parent="XRbNPRy90sFqUwL_RlTj-25">
          <mxGeometry x="5" y="115" width="180" height="30" as="geometry" />
        </mxCell>
        <mxCell id="XRbNPRy90sFqUwL_RlTj-31" value="emote(s) (list of emotes used)" style="text;html=1;strokeColor=none;fillColor=none;align=center;verticalAlign=middle;whiteSpace=wrap;rounded=0;" vertex="1" parent="XRbNPRy90sFqUwL_RlTj-25">
          <mxGeometry x="5" y="145" width="180" height="30" as="geometry" />
        </mxCell>
        <mxCell id="XRbNPRy90sFqUwL_RlTj-32" value="&lt;h1&gt;current json structure&lt;/h1&gt;" style="text;html=1;strokeColor=none;fillColor=none;spacing=5;spacingTop=-20;whiteSpace=wrap;overflow=hidden;rounded=0;" vertex="1" parent="1">
          <mxGeometry x="279" y="140" width="270" height="40" as="geometry" />
        </mxCell>
      </root>
    </mxGraphModel>
  </diagram>
</mxfile>
